<svg width="134" height="213" viewBox="0 0 134 213" fill="none" xmlns="http://www.w3.org/2000/svg">
<path d="M107.812 180.666C106.308 180.666 105.087 179.446 105.087 177.942C105.087 176.942 105.629 176.065 106.435 175.592C107.249 174.764 109.496 171.515 109.626 167.707C109.73 164.657 108.472 161.797 105.887 159.213C102.349 155.675 100.606 151.799 100.703 147.691C100.861 141.152 105.771 136.621 105.979 136.432C107.095 135.422 108.817 135.507 109.827 136.617C110.834 137.728 110.756 139.443 109.652 140.455C109.616 140.485 106.227 143.676 106.149 147.861C106.1 150.406 107.308 152.929 109.737 155.36C116.928 162.552 115.308 170.133 113.7 174.014C113.587 174.289 110.91 180.666 107.812 180.666Z" fill="#3B82F6"/>
<path d="M123.245 180.666C121.741 180.666 120.521 179.446 120.521 177.942C120.521 176.942 121.063 176.065 121.869 175.592C122.683 174.764 124.929 171.515 125.059 167.707C125.163 164.657 123.905 161.797 121.32 159.213C117.783 155.675 116.04 151.799 116.137 147.691C116.295 141.152 121.205 136.621 121.413 136.432C122.529 135.422 124.253 135.507 125.26 136.617C126.268 137.728 126.19 139.443 125.085 140.455C125.05 140.485 121.661 143.676 121.583 147.861C121.533 150.406 122.742 152.929 125.17 155.36C132.362 162.552 130.742 170.133 129.134 174.014C129.023 174.289 126.346 180.666 123.245 180.666Z" fill="#3B82F6"/>
<path d="M130.041 105.943L74.2075 1.0832C73.6754 0.0852328 72.4363 -0.288412 71.443 0.238948C70.4474 0.768672 70.0714 2.00548 70.5988 3.00345L126.52 108.007C128.015 110.339 131.408 117.282 129.185 121.35C127.757 123.96 124.08 125.287 118.253 125.287H66.9569C66.86 125.287 66.7394 125.296 66.6424 125.311C66.6258 125.315 64.9019 125.549 63.6911 124.5C62.6955 123.639 62.1918 122.071 62.1918 119.838C62.1918 116.719 67.2123 112.115 71.7244 112.115C72.8525 112.115 73.7677 111.2 73.7677 110.072C73.7677 108.944 72.8525 108.028 71.7244 108.028C65.233 108.028 58.1053 114.208 58.1053 119.838C58.1053 123.345 59.1033 125.968 61.0732 127.638C62.861 129.154 64.9255 129.423 66.1765 129.423C66.5762 129.423 66.8954 129.395 67.0941 129.371H80.8102C81.4581 134.321 83.5959 148.157 88.0797 156.43C74.0325 158.454 15.5004 164.948 3.94811 135.215C3.53899 134.162 2.34711 133.637 1.30421 134.049C0.25186 134.458 -0.268405 135.643 0.138348 136.693C6.1143 152.069 23.9925 160.946 51.8456 162.363C54.6006 162.502 57.3297 162.564 59.9925 162.564C69.1799 162.564 77.5349 161.84 83.3902 161.159L89.4962 188.904C89.5128 188.972 91.1965 195.679 87.0486 201.045C83.298 205.897 76.0048 208.354 65.3677 208.354C64.2397 208.354 63.3245 209.27 63.3245 210.398C63.3245 211.526 64.2397 212.441 65.3677 212.441C77.3693 212.441 85.7621 209.43 90.3168 203.495C95.6779 196.507 93.5354 188.206 93.4644 187.943L87.4601 160.644C90.1726 160.27 91.7783 159.989 91.8327 159.979C92.5327 159.854 93.1168 159.371 93.3746 158.709C93.6323 158.047 93.5283 157.297 93.0979 156.732C88.2168 150.309 85.7314 135.115 84.9392 129.371H118.255C125.695 129.371 130.581 127.328 132.778 123.298C136.609 116.27 130.228 106.219 130.041 105.943Z" fill="#3B82F6"/>
</svg>
